<svg width="87" height="85" viewBox="0 0 87 85" fill="none" xmlns="http://www.w3.org/2000/svg">
<g clip-path="url(#clip0_1444_456)">
<path d="M42.1226 69.5864C42.2758 64.4932 42.4381 59.4062 42.5428 54.3052C42.5524 53.952 42.1867 53.4575 41.862 53.2014C34.08 47.1378 30.6488 39.4055 31.3289 30.24C31.4418 28.7162 32.0567 27.2456 33.1575 25.8916C34.6056 24.102 37.052 24.0022 38.9809 25.5876C40.6683 26.9729 41.5653 28.7929 42.2758 30.7104C43.8337 34.9601 44.3502 39.3389 44.7099 43.7112C44.939 46.4824 44.9961 49.2493 45.1435 52.1019C46.4578 52.3056 47.9397 51.6426 48.514 50.5911C49.6122 48.6028 49.7536 47.3959 50.0977 45.5691C51.1791 39.8366 50.771 33.9807 49.4875 28.1672C48.5327 23.8403 47.2631 19.5616 46.1284 15.2623C46.0318 14.8872 45.896 14.5104 45.8271 14.1539C45.7185 13.597 45.8133 13.1772 46.257 13.0174C46.6533 12.7885 47.1679 13.3213 47.4189 13.6269C47.833 14.1293 48.1597 14.7215 48.3779 15.3151C51.9098 24.653 54.075 34.1241 53.0571 43.8308C52.8313 45.9606 52.264 48.0586 51.5824 50.0671C50.5947 52.9484 48.5952 54.7384 45.0763 54.475C44.7519 59.3039 44.4342 64.0629 44.1132 68.9065C44.9754 67.6274 45.7916 66.4164 46.6135 65.1969C46.7514 64.9923 46.8617 64.7689 47.0181 64.5767C47.4379 64.0535 47.8121 63.2392 48.7154 63.7736C49.6002 64.2955 49.1094 65.0437 48.791 65.536C47.1946 68.0442 45.5647 70.5421 43.8388 72.9631C43.1329 73.9507 42.0843 73.9509 41.3805 72.8812C39.3154 69.8027 37.3828 66.6274 35.4745 63.456C35.2961 63.1622 35.1918 62.4594 35.7783 62.1478C36.26 61.9516 36.8827 62.3837 37.113 62.7001C38.4982 64.6135 39.804 66.585 41.1305 68.5456C41.3678 68.8916 41.5935 69.2546 41.8251 69.6091C42.1173 70.2525 42.1086 69.9862 42.1226 69.5864ZM42.3373 51.2398C42.6528 51.4897 42.5287 50.7364 42.525 50.6222C42.33 44.6495 41.9424 38.6834 40.2227 32.7992C39.7646 31.2254 39.0111 29.651 38.0885 28.2478C36.8557 26.3875 35.0599 26.4793 34.2465 28.4239C33.7211 29.682 33.3426 31.1012 33.3216 32.4884C33.2095 38.3782 36.1748 45.1267 39.2808 48.4356C40.4788 49.6895 40.867 49.9512 42.3373 51.2398Z" fill="#837D7D"/>
</g>
<defs>
<clipPath id="clip0_1444_456">
<rect width="59.2361" height="64.2015" fill="white" transform="translate(86.3457 35.8828) rotate(123.98)"/>
</clipPath>
</defs>
</svg>
