<svg width="668" height="207" viewBox="0 0 668 207" fill="none" xmlns="http://www.w3.org/2000/svg">
<rect y="89" width="572" height="101" rx="50" fill="#F2EFE0"/>
<rect y="70" width="572" height="101" rx="50" fill="#232C43"/>
<path d="M93.852 139V103.85H100.652V139H93.852ZM98.852 139V132.95H116.752V139H98.852ZM132.35 139.5C129.817 139.5 127.567 138.967 125.6 137.9C123.634 136.8 122.067 135.3 120.9 133.4C119.767 131.5 119.2 129.333 119.2 126.9C119.2 124.5 119.75 122.367 120.85 120.5C121.984 118.6 123.517 117.1 125.45 116C127.384 114.867 129.534 114.3 131.9 114.3C134.234 114.3 136.284 114.833 138.05 115.9C139.85 116.933 141.25 118.367 142.25 120.2C143.284 122 143.8 124.05 143.8 126.35C143.8 126.783 143.767 127.233 143.7 127.7C143.667 128.133 143.584 128.633 143.45 129.2L123.15 129.25V124.35L140.4 124.3L137.75 126.35C137.684 124.917 137.417 123.717 136.95 122.75C136.517 121.783 135.867 121.05 135 120.55C134.167 120.017 133.134 119.75 131.9 119.75C130.6 119.75 129.467 120.05 128.5 120.65C127.534 121.217 126.784 122.033 126.25 123.1C125.75 124.133 125.5 125.367 125.5 126.8C125.5 128.267 125.767 129.55 126.3 130.65C126.867 131.717 127.667 132.55 128.7 133.15C129.734 133.717 130.934 134 132.3 134C133.534 134 134.65 133.8 135.65 133.4C136.65 132.967 137.517 132.333 138.25 131.5L142.1 135.35C140.934 136.717 139.5 137.75 137.8 138.45C136.134 139.15 134.317 139.5 132.35 139.5ZM151.315 139V104.8H157.865V139H151.315ZM145.665 120.6V114.85H163.515V120.6H145.665ZM168.173 117.05L171.673 110.5L173.773 109.9C173.54 110.367 173.273 110.75 172.973 111.05C172.673 111.317 172.323 111.45 171.923 111.45C171.056 111.45 170.256 111.1 169.523 110.4C168.823 109.667 168.473 108.75 168.473 107.65C168.473 106.45 168.873 105.433 169.673 104.6C170.473 103.767 171.456 103.35 172.623 103.35C173.756 103.35 174.74 103.767 175.573 104.6C176.406 105.433 176.823 106.45 176.823 107.65C176.823 108.117 176.723 108.683 176.523 109.35C176.323 109.983 175.956 110.8 175.423 111.8L171.573 118.9L168.173 117.05ZM187.436 139.55C186.07 139.55 184.72 139.367 183.386 139C182.086 138.633 180.886 138.133 179.786 137.5C178.686 136.833 177.736 136.033 176.936 135.1L180.836 131.15C181.67 132.083 182.636 132.783 183.736 133.25C184.836 133.717 186.053 133.95 187.386 133.95C188.453 133.95 189.253 133.8 189.786 133.5C190.353 133.2 190.636 132.75 190.636 132.15C190.636 131.483 190.336 130.967 189.736 130.6C189.17 130.233 188.42 129.933 187.486 129.7C186.553 129.433 185.57 129.15 184.536 128.85C183.536 128.517 182.57 128.1 181.636 127.6C180.703 127.067 179.936 126.35 179.336 125.45C178.77 124.517 178.486 123.317 178.486 121.85C178.486 120.317 178.853 118.983 179.586 117.85C180.353 116.717 181.436 115.833 182.836 115.2C184.236 114.567 185.886 114.25 187.786 114.25C189.786 114.25 191.586 114.6 193.186 115.3C194.82 116 196.17 117.05 197.236 118.45L193.286 122.4C192.553 121.5 191.72 120.85 190.786 120.45C189.886 120.05 188.903 119.85 187.836 119.85C186.87 119.85 186.12 120 185.586 120.3C185.086 120.6 184.836 121.017 184.836 121.55C184.836 122.15 185.12 122.617 185.686 122.95C186.286 123.283 187.053 123.583 187.986 123.85C188.92 124.083 189.886 124.367 190.886 124.7C191.92 125 192.886 125.433 193.786 126C194.72 126.567 195.47 127.317 196.036 128.25C196.636 129.183 196.936 130.383 196.936 131.85C196.936 134.217 196.086 136.1 194.386 137.5C192.686 138.867 190.37 139.55 187.436 139.55ZM229.069 139.5C226.569 139.5 224.219 139.05 222.019 138.15C219.852 137.217 217.935 135.917 216.269 134.25C214.635 132.583 213.352 130.667 212.419 128.5C211.519 126.3 211.069 123.933 211.069 121.4C211.069 118.833 211.535 116.467 212.469 114.3C213.402 112.1 214.702 110.183 216.369 108.55C218.035 106.883 219.985 105.6 222.219 104.7C224.452 103.767 226.869 103.3 229.469 103.3C232.369 103.3 235.035 103.85 237.469 104.95C239.902 106.017 241.919 107.533 243.519 109.5L238.919 114.1C237.819 112.667 236.452 111.567 234.819 110.8C233.185 110.033 231.385 109.65 229.419 109.65C227.185 109.65 225.202 110.15 223.469 111.15C221.769 112.117 220.435 113.483 219.469 115.25C218.502 116.983 218.019 119.017 218.019 121.35C218.019 123.683 218.485 125.75 219.419 127.55C220.385 129.317 221.685 130.7 223.319 131.7C224.985 132.7 226.885 133.2 229.019 133.2C231.219 133.2 233.102 132.8 234.669 132C236.235 131.167 237.435 129.967 238.269 128.4C239.102 126.8 239.519 124.85 239.519 122.55L243.969 125.6L228.619 125.45V119.55H246.519V120.5C246.519 124.7 245.769 128.217 244.269 131.05C242.769 133.85 240.702 135.967 238.069 137.4C235.469 138.8 232.469 139.5 229.069 139.5ZM263.085 139.5C260.551 139.5 258.301 138.967 256.335 137.9C254.368 136.8 252.801 135.3 251.635 133.4C250.501 131.5 249.935 129.333 249.935 126.9C249.935 124.5 250.485 122.367 251.585 120.5C252.718 118.6 254.251 117.1 256.185 116C258.118 114.867 260.268 114.3 262.635 114.3C264.968 114.3 267.018 114.833 268.785 115.9C270.585 116.933 271.985 118.367 272.985 120.2C274.018 122 274.535 124.05 274.535 126.35C274.535 126.783 274.501 127.233 274.435 127.7C274.401 128.133 274.318 128.633 274.185 129.2L253.885 129.25V124.35L271.135 124.3L268.485 126.35C268.418 124.917 268.151 123.717 267.685 122.75C267.251 121.783 266.601 121.05 265.735 120.55C264.901 120.017 263.868 119.75 262.635 119.75C261.335 119.75 260.201 120.05 259.235 120.65C258.268 121.217 257.518 122.033 256.985 123.1C256.485 124.133 256.235 125.367 256.235 126.8C256.235 128.267 256.501 129.55 257.035 130.65C257.601 131.717 258.401 132.55 259.435 133.15C260.468 133.717 261.668 134 263.035 134C264.268 134 265.385 133.8 266.385 133.4C267.385 132.967 268.251 132.333 268.985 131.5L272.835 135.35C271.668 136.717 270.235 137.75 268.535 138.45C266.868 139.15 265.051 139.5 263.085 139.5ZM282.05 139V104.8H288.6V139H282.05ZM276.4 120.6V114.85H294.25V120.6H276.4ZM319.599 139.5C316.765 139.5 314.332 139.017 312.299 138.05C310.299 137.083 308.482 135.633 306.849 133.7L311.349 129.2C312.382 130.567 313.582 131.633 314.949 132.4C316.315 133.133 317.982 133.5 319.949 133.5C321.715 133.5 323.115 133.15 324.149 132.45C325.215 131.75 325.749 130.783 325.749 129.55C325.749 128.483 325.449 127.617 324.849 126.95C324.249 126.283 323.449 125.717 322.449 125.25C321.482 124.783 320.399 124.367 319.199 124C318.032 123.6 316.849 123.15 315.649 122.65C314.482 122.15 313.399 121.533 312.399 120.8C311.432 120.033 310.649 119.067 310.049 117.9C309.449 116.7 309.149 115.2 309.149 113.4C309.149 111.267 309.665 109.45 310.699 107.95C311.732 106.45 313.149 105.3 314.949 104.5C316.749 103.7 318.782 103.3 321.049 103.3C323.449 103.3 325.615 103.75 327.549 104.65C329.482 105.55 331.065 106.717 332.299 108.15L327.799 112.65C326.765 111.517 325.699 110.683 324.599 110.15C323.532 109.617 322.315 109.35 320.949 109.35C319.382 109.35 318.149 109.65 317.249 110.25C316.349 110.85 315.899 111.717 315.899 112.85C315.899 113.817 316.199 114.6 316.799 115.2C317.399 115.8 318.182 116.317 319.149 116.75C320.149 117.183 321.232 117.6 322.399 118C323.599 118.4 324.782 118.85 325.949 119.35C327.149 119.85 328.232 120.5 329.199 121.3C330.199 122.1 330.999 123.133 331.599 124.4C332.199 125.633 332.499 127.167 332.499 129C332.499 132.267 331.349 134.833 329.049 136.7C326.749 138.567 323.599 139.5 319.599 139.5ZM341.216 139V104.8H347.766V139H341.216ZM335.566 120.6V114.85H353.416V120.6H335.566ZM367.113 139.5C364.913 139.5 362.93 138.95 361.163 137.85C359.397 136.75 358.013 135.25 357.013 133.35C356.013 131.45 355.513 129.317 355.513 126.95C355.513 124.55 356.013 122.4 357.013 120.5C358.013 118.6 359.397 117.1 361.163 116C362.93 114.9 364.913 114.35 367.113 114.35C368.847 114.35 370.397 114.7 371.763 115.4C373.13 116.1 374.213 117.083 375.013 118.35C375.847 119.583 376.297 120.983 376.363 122.55V131.25C376.297 132.85 375.847 134.267 375.013 135.5C374.213 136.733 373.13 137.717 371.763 138.45C370.397 139.15 368.847 139.5 367.113 139.5ZM368.313 133.45C370.147 133.45 371.63 132.85 372.763 131.65C373.897 130.417 374.463 128.833 374.463 126.9C374.463 125.633 374.197 124.517 373.663 123.55C373.163 122.55 372.447 121.783 371.513 121.25C370.613 120.683 369.547 120.4 368.313 120.4C367.113 120.4 366.047 120.683 365.113 121.25C364.213 121.783 363.497 122.55 362.963 123.55C362.463 124.517 362.213 125.633 362.213 126.9C362.213 128.2 362.463 129.35 362.963 130.35C363.497 131.317 364.213 132.083 365.113 132.65C366.047 133.183 367.113 133.45 368.313 133.45ZM374.113 139V132.5L375.163 126.6L374.113 120.8V114.85H380.613V139H374.113ZM386.908 139V114.85H393.458V139H386.908ZM393.458 125.65L390.908 123.95C391.208 120.983 392.074 118.65 393.508 116.95C394.941 115.217 397.008 114.35 399.708 114.35C400.874 114.35 401.924 114.55 402.858 114.95C403.791 115.317 404.641 115.933 405.408 116.8L401.308 121.5C400.941 121.1 400.491 120.8 399.958 120.6C399.458 120.4 398.874 120.3 398.208 120.3C396.808 120.3 395.658 120.75 394.758 121.65C393.891 122.517 393.458 123.85 393.458 125.65ZM411.905 139V104.8H418.455V139H411.905ZM406.255 120.6V114.85H424.105V120.6H406.255ZM439.253 139.5C436.719 139.5 434.469 138.967 432.503 137.9C430.536 136.8 428.969 135.3 427.803 133.4C426.669 131.5 426.103 129.333 426.103 126.9C426.103 124.5 426.653 122.367 427.753 120.5C428.886 118.6 430.419 117.1 432.353 116C434.286 114.867 436.436 114.3 438.803 114.3C441.136 114.3 443.186 114.833 444.953 115.9C446.753 116.933 448.153 118.367 449.153 120.2C450.186 122 450.703 124.05 450.703 126.35C450.703 126.783 450.669 127.233 450.603 127.7C450.569 128.133 450.486 128.633 450.353 129.2L430.053 129.25V124.35L447.303 124.3L444.653 126.35C444.586 124.917 444.319 123.717 443.853 122.75C443.419 121.783 442.769 121.05 441.903 120.55C441.069 120.017 440.036 119.75 438.803 119.75C437.503 119.75 436.369 120.05 435.403 120.65C434.436 121.217 433.686 122.033 433.153 123.1C432.653 124.133 432.403 125.367 432.403 126.8C432.403 128.267 432.669 129.55 433.203 130.65C433.769 131.717 434.569 132.55 435.603 133.15C436.636 133.717 437.836 134 439.203 134C440.436 134 441.553 133.8 442.553 133.4C443.553 132.967 444.419 132.333 445.153 131.5L449.003 135.35C447.836 136.717 446.403 137.75 444.703 138.45C443.036 139.15 441.219 139.5 439.253 139.5ZM465.454 139.5C463.22 139.5 461.22 138.95 459.454 137.85C457.687 136.75 456.287 135.25 455.254 133.35C454.254 131.45 453.754 129.317 453.754 126.95C453.754 124.55 454.254 122.4 455.254 120.5C456.287 118.6 457.67 117.1 459.404 116C461.17 114.9 463.187 114.35 465.454 114.35C467.187 114.35 468.737 114.7 470.104 115.4C471.504 116.1 472.62 117.083 473.454 118.35C474.32 119.583 474.787 120.983 474.854 122.55V131.15C474.787 132.717 474.337 134.133 473.504 135.4C472.67 136.667 471.554 137.667 470.154 138.4C468.754 139.133 467.187 139.5 465.454 139.5ZM466.554 133.45C467.787 133.45 468.854 133.183 469.754 132.65C470.687 132.083 471.404 131.317 471.904 130.35C472.437 129.35 472.704 128.2 472.704 126.9C472.704 125.633 472.437 124.517 471.904 123.55C471.404 122.55 470.687 121.783 469.754 121.25C468.854 120.683 467.804 120.4 466.604 120.4C465.37 120.4 464.287 120.683 463.354 121.25C462.454 121.817 461.737 122.583 461.204 123.55C460.704 124.517 460.454 125.633 460.454 126.9C460.454 128.2 460.704 129.35 461.204 130.35C461.737 131.317 462.47 132.083 463.404 132.65C464.337 133.183 465.387 133.45 466.554 133.45ZM478.854 139H472.354V132.5L473.404 126.6L472.304 120.8V102.85H478.854V139Z" fill="white"/>
<path d="M158.01 158.108C140.408 159.129 123.089 160.562 105.423 160.273C83.8251 159.92 62.3564 157.497 40.8685 155.504C40.5127 155.47 40.5036 155.982 40.8365 156.044C62.1076 159.935 83.7165 161.539 105.322 161.997C122.613 162.364 141.081 162.272 158.033 158.423C158.203 158.384 158.198 158.096 158.01 158.108Z" fill="#808AE2"/>
<path d="M38.7649 155.352C38.487 155.296 38.3627 155.089 38.1009 155.04C37.5231 154.936 36.9563 154.879 36.3734 154.83C35.184 154.729 34.3387 154.745 33.2029 155.092C33.0133 155.149 32.9657 155.425 33.1773 155.494C34.1503 155.818 34.9098 155.976 35.946 155.987C36.4571 155.993 36.9956 156.046 37.5038 155.989C37.9951 155.934 38.2979 155.718 38.7473 155.635C38.8825 155.611 38.9144 155.381 38.7658 155.35L38.7649 155.352Z" fill="#808AE2"/>
<path d="M577.855 75.8733C578.36 74.8669 578.698 74.0364 579.191 73.256C584.143 65.3637 591.037 58.7693 598.639 52.6863C599.532 51.9759 600.605 51.3423 601.737 50.993C602.347 50.8033 603.458 51.0434 604.048 51.443C604.489 51.7482 604.684 52.672 604.492 53.1402C604.143 54.0371 603.577 54.9188 602.87 55.6619C598.22 60.5734 593.548 65.4582 588.826 70.3115C587.053 72.1226 585.204 73.8975 583.382 75.6772C582.783 76.2793 582.133 76.85 581.465 77.3718C580.728 77.9727 579.722 78.23 578.871 77.602C578.312 77.185 577.684 76.8471 577.855 75.8733Z" fill="#F2EFE0"/>
<path d="M609.827 115.431C608.579 115.03 607.109 114.636 605.717 114.119C600.226 112.063 594.735 110.007 589.279 107.912C588.095 107.454 586.969 106.824 585.962 106.146C584.608 105.248 584.261 104.252 584.675 103.298C585.089 102.344 586.157 101.892 587.84 102.164C588.99 102.342 590.212 102.579 591.266 102.991C598.172 105.75 605.07 108.554 611.937 111.375C612.706 111.692 613.478 112.146 614.013 112.696C615.369 114.051 614.592 115.671 612.546 115.747C611.746 115.766 610.878 115.546 609.827 115.431Z" fill="#F2EFE0"/>
<path d="M545.318 42.9925C545.607 41.971 546.056 40.9775 546.553 40.0154C547.005 39.1593 547.864 38.648 549.079 38.7693C550.103 38.8801 551.049 39.9123 551.015 41.0469C550.969 42.567 550.892 44.1046 550.553 45.5734C549.53 50.002 548.398 54.4341 547.243 58.8394C546.85 60.2989 546.351 61.7397 545.798 63.1713C545.602 63.6616 545.296 64.1555 544.88 64.4932C543.75 65.4587 542.06 65.0718 541.606 63.738C541.353 62.9866 541.34 62.1176 541.472 61.3652C541.773 58.8631 544.329 46.6058 545.318 42.9925Z" fill="#F2EFE0"/>
<path d="M551.569 98.9597C537.818 87.5395 523.082 82.0086 505.285 80.3656C504.929 80.3319 504.97 79.8002 505.302 79.7566C520.991 77.6366 543.689 83.9587 551.855 98.7488C551.948 98.9164 551.702 99.0715 551.567 98.96L551.569 98.9597Z" fill="#808AE2"/>
</svg>
