<svg width="668" height="207" viewBox="0 0 668 207" fill="none" xmlns="http://www.w3.org/2000/svg">
<rect y="89" width="572" height="101" rx="50" fill="black"/>
<rect y="70" width="572" height="101" rx="50" fill="#CCB4AC"/>
<g clip-path="url(#clip0_1360_705)">
<path d="M128.668 120.892C128.668 119.736 128.575 118.574 128.375 117.437H112.34V123.984H121.522C121.141 126.095 119.917 127.963 118.124 129.15V133.397H123.603C126.82 130.436 128.668 126.064 128.668 120.892Z" fill="#4285F4"/>
<path d="M112.34 137.501C116.925 137.501 120.792 135.996 123.609 133.397L118.13 129.15C116.606 130.186 114.639 130.774 112.346 130.774C107.911 130.774 104.151 127.782 102.801 123.759H97.1483V128.138C100.034 133.878 105.912 137.501 112.34 137.501Z" fill="#34A853"/>
<path d="M102.795 123.759C102.083 121.647 102.083 119.361 102.795 117.25V112.871H97.1483C94.7372 117.675 94.7372 123.334 97.1483 128.138L102.795 123.759Z" fill="#FBBC04"/>
<path d="M112.34 110.229C114.764 110.191 117.106 111.103 118.861 112.777L123.715 107.924C120.642 105.038 116.563 103.451 112.34 103.501C105.912 103.501 100.034 107.124 97.1483 112.871L102.795 117.25C104.138 113.221 107.905 110.229 112.34 110.229Z" fill="#EA4335"/>
</g>
<path d="M160.915 133.34C159.17 133.34 157.549 133.034 156.053 132.422C154.557 131.787 153.243 130.915 152.109 129.804C150.999 128.671 150.137 127.356 149.525 125.86C148.936 124.364 148.641 122.755 148.641 121.032C148.641 119.309 148.936 117.7 149.525 116.204C150.137 114.708 150.999 113.405 152.109 112.294C153.243 111.183 154.546 110.311 156.019 109.676C157.515 109.041 159.147 108.724 160.915 108.724C162.819 108.724 164.497 109.041 165.947 109.676C167.398 110.288 168.679 111.138 169.789 112.226L166.661 115.354C166.004 114.629 165.199 114.062 164.247 113.654C163.295 113.246 162.185 113.042 160.915 113.042C159.805 113.042 158.785 113.235 157.855 113.62C156.949 113.983 156.155 114.527 155.475 115.252C154.795 115.955 154.274 116.805 153.911 117.802C153.549 118.777 153.367 119.853 153.367 121.032C153.367 122.233 153.549 123.321 153.911 124.296C154.274 125.271 154.795 126.121 155.475 126.846C156.155 127.549 156.949 128.093 157.855 128.478C158.785 128.863 159.805 129.056 160.915 129.056C162.253 129.056 163.397 128.852 164.349 128.444C165.324 128.036 166.14 127.458 166.797 126.71L169.925 129.838C168.815 130.949 167.523 131.81 166.049 132.422C164.576 133.034 162.865 133.34 160.915 133.34ZM180.29 133.34C178.636 133.34 177.14 132.966 175.802 132.218C174.488 131.447 173.434 130.416 172.64 129.124C171.87 127.809 171.484 126.347 171.484 124.738C171.484 123.129 171.87 121.689 172.64 120.42C173.411 119.128 174.465 118.108 175.802 117.36C177.14 116.589 178.624 116.204 180.256 116.204C181.934 116.204 183.43 116.589 184.744 117.36C186.082 118.108 187.136 119.128 187.906 120.42C188.677 121.689 189.062 123.129 189.062 124.738C189.062 126.347 188.677 127.809 187.906 129.124C187.136 130.416 186.082 131.447 184.744 132.218C183.43 132.966 181.945 133.34 180.29 133.34ZM180.256 129.192C181.095 129.192 181.832 129.011 182.466 128.648C183.124 128.263 183.622 127.741 183.962 127.084C184.325 126.404 184.506 125.633 184.506 124.772C184.506 123.911 184.325 123.151 183.962 122.494C183.6 121.837 183.101 121.327 182.466 120.964C181.832 120.579 181.095 120.386 180.256 120.386C179.44 120.386 178.715 120.579 178.08 120.964C177.446 121.327 176.947 121.837 176.584 122.494C176.222 123.151 176.04 123.911 176.04 124.772C176.04 125.633 176.222 126.404 176.584 127.084C176.947 127.741 177.446 128.263 178.08 128.648C178.715 129.011 179.44 129.192 180.256 129.192ZM203.32 133V123.582C203.32 122.607 203.014 121.814 202.402 121.202C201.79 120.59 200.996 120.284 200.022 120.284C199.387 120.284 198.82 120.42 198.322 120.692C197.823 120.964 197.426 121.349 197.132 121.848C196.86 122.347 196.724 122.925 196.724 123.582L194.99 122.698C194.99 121.406 195.262 120.284 195.806 119.332C196.372 118.357 197.143 117.598 198.118 117.054C199.115 116.51 200.237 116.238 201.484 116.238C202.685 116.238 203.762 116.544 204.714 117.156C205.666 117.745 206.414 118.527 206.958 119.502C207.502 120.454 207.774 121.485 207.774 122.596V133H203.32ZM192.27 133V116.578H196.724V133H192.27ZM213.916 133V109.744H218.37V133H213.916ZM210.074 120.488V116.578H222.212V120.488H210.074ZM225.057 133V116.578H229.545V133H225.057ZM227.301 113.926C226.576 113.926 225.975 113.688 225.499 113.212C225.023 112.713 224.785 112.101 224.785 111.376C224.785 110.673 225.023 110.073 225.499 109.574C225.975 109.075 226.576 108.826 227.301 108.826C228.049 108.826 228.65 109.075 229.103 109.574C229.579 110.073 229.817 110.673 229.817 111.376C229.817 112.101 229.579 112.713 229.103 113.212C228.65 113.688 228.049 113.926 227.301 113.926ZM244.881 133V123.582C244.881 122.607 244.575 121.814 243.963 121.202C243.351 120.59 242.557 120.284 241.583 120.284C240.948 120.284 240.381 120.42 239.883 120.692C239.384 120.964 238.987 121.349 238.693 121.848C238.421 122.347 238.285 122.925 238.285 123.582L236.551 122.698C236.551 121.406 236.823 120.284 237.367 119.332C237.933 118.357 238.704 117.598 239.679 117.054C240.676 116.51 241.798 116.238 243.045 116.238C244.246 116.238 245.323 116.544 246.275 117.156C247.227 117.745 247.975 118.527 248.519 119.502C249.063 120.454 249.335 121.485 249.335 122.596V133H244.881ZM233.831 133V116.578H238.285V133H233.831ZM260.266 133.34C258.816 133.34 257.524 133.034 256.39 132.422C255.28 131.81 254.407 130.96 253.772 129.872C253.138 128.784 252.82 127.526 252.82 126.098V116.578H257.308V125.996C257.308 126.676 257.422 127.265 257.648 127.764C257.875 128.24 258.215 128.603 258.668 128.852C259.122 129.101 259.654 129.226 260.266 129.226C261.196 129.226 261.921 128.943 262.442 128.376C262.964 127.809 263.224 127.016 263.224 125.996V116.578H267.678V126.098C267.678 127.549 267.361 128.818 266.726 129.906C266.114 130.994 265.242 131.844 264.108 132.456C262.998 133.045 261.717 133.34 260.266 133.34ZM279.419 133.34C277.697 133.34 276.167 132.977 274.829 132.252C273.492 131.504 272.427 130.484 271.633 129.192C270.863 127.9 270.477 126.427 270.477 124.772C270.477 123.14 270.851 121.689 271.599 120.42C272.37 119.128 273.413 118.108 274.727 117.36C276.042 116.589 277.504 116.204 279.113 116.204C280.7 116.204 282.094 116.567 283.295 117.292C284.519 117.995 285.471 118.969 286.151 120.216C286.854 121.44 287.205 122.834 287.205 124.398C287.205 124.693 287.183 124.999 287.137 125.316C287.115 125.611 287.058 125.951 286.967 126.336L273.163 126.37V123.038L284.893 123.004L283.091 124.398C283.046 123.423 282.865 122.607 282.547 121.95C282.253 121.293 281.811 120.794 281.221 120.454C280.655 120.091 279.952 119.91 279.113 119.91C278.229 119.91 277.459 120.114 276.801 120.522C276.144 120.907 275.634 121.463 275.271 122.188C274.931 122.891 274.761 123.729 274.761 124.704C274.761 125.701 274.943 126.574 275.305 127.322C275.691 128.047 276.235 128.614 276.937 129.022C277.64 129.407 278.456 129.6 279.385 129.6C280.224 129.6 280.983 129.464 281.663 129.192C282.343 128.897 282.933 128.467 283.431 127.9L286.049 130.518C285.256 131.447 284.281 132.15 283.125 132.626C281.992 133.102 280.757 133.34 279.419 133.34ZM301.667 133L295.513 116.578H300.001L304.013 128.512L302.653 128.546L306.767 116.578H309.997L314.111 128.546L312.751 128.512L316.763 116.578H321.251L315.131 133H311.901L307.753 121.644H309.011L304.863 133H301.667ZM323.486 133V116.578H327.974V133H323.486ZM325.73 113.926C325.004 113.926 324.404 113.688 323.928 113.212C323.452 112.713 323.214 112.101 323.214 111.376C323.214 110.673 323.452 110.073 323.928 109.574C324.404 109.075 325.004 108.826 325.73 108.826C326.478 108.826 327.078 109.075 327.532 109.574C328.008 110.073 328.246 110.673 328.246 111.376C328.246 112.101 328.008 112.713 327.532 113.212C327.078 113.688 326.478 113.926 325.73 113.926ZM334.673 133V109.744H339.127V133H334.673ZM330.831 120.488V116.578H342.969V120.488H330.831ZM356.864 133V123.582C356.864 122.607 356.558 121.814 355.946 121.202C355.334 120.59 354.541 120.284 353.566 120.284C352.932 120.284 352.365 120.42 351.866 120.692C351.368 120.964 350.971 121.349 350.676 121.848C350.404 122.347 350.268 122.925 350.268 123.582L348.534 122.698C348.534 121.406 348.806 120.284 349.35 119.332C349.894 118.357 350.642 117.598 351.594 117.054C352.569 116.51 353.68 116.238 354.926 116.238C356.173 116.238 357.272 116.51 358.224 117.054C359.199 117.598 359.958 118.346 360.502 119.298C361.046 120.25 361.318 121.349 361.318 122.596V133H356.864ZM345.814 133V108.418H350.268V133H345.814ZM383.753 133.34C382.053 133.34 380.455 133.034 378.959 132.422C377.485 131.787 376.182 130.903 375.049 129.77C373.938 128.637 373.065 127.333 372.431 125.86C371.819 124.364 371.513 122.755 371.513 121.032C371.513 119.287 371.83 117.677 372.465 116.204C373.099 114.708 373.983 113.405 375.117 112.294C376.25 111.161 377.576 110.288 379.095 109.676C380.613 109.041 382.257 108.724 384.025 108.724C385.997 108.724 387.81 109.098 389.465 109.846C391.119 110.571 392.491 111.603 393.579 112.94L390.451 116.068C389.703 115.093 388.773 114.345 387.663 113.824C386.552 113.303 385.328 113.042 383.991 113.042C382.472 113.042 381.123 113.382 379.945 114.062C378.789 114.719 377.882 115.649 377.225 116.85C376.567 118.029 376.239 119.411 376.239 120.998C376.239 122.585 376.556 123.99 377.191 125.214C377.848 126.415 378.732 127.356 379.843 128.036C380.976 128.716 382.268 129.056 383.719 129.056C385.215 129.056 386.495 128.784 387.561 128.24C388.626 127.673 389.442 126.857 390.009 125.792C390.575 124.704 390.859 123.378 390.859 121.814L393.885 123.888L383.447 123.786V119.774H395.619V120.42C395.619 123.276 395.109 125.667 394.089 127.594C393.069 129.498 391.663 130.937 389.873 131.912C388.105 132.864 386.065 133.34 383.753 133.34ZM406.748 133.34C405.093 133.34 403.597 132.966 402.26 132.218C400.945 131.447 399.891 130.416 399.098 129.124C398.327 127.809 397.942 126.347 397.942 124.738C397.942 123.129 398.327 121.689 399.098 120.42C399.868 119.128 400.922 118.108 402.26 117.36C403.597 116.589 405.082 116.204 406.714 116.204C408.391 116.204 409.887 116.589 411.202 117.36C412.539 118.108 413.593 119.128 414.364 120.42C415.134 121.689 415.52 123.129 415.52 124.738C415.52 126.347 415.134 127.809 414.364 129.124C413.593 130.416 412.539 131.447 411.202 132.218C409.887 132.966 408.402 133.34 406.748 133.34ZM406.714 129.192C407.552 129.192 408.289 129.011 408.924 128.648C409.581 128.263 410.08 127.741 410.42 127.084C410.782 126.404 410.964 125.633 410.964 124.772C410.964 123.911 410.782 123.151 410.42 122.494C410.057 121.837 409.558 121.327 408.924 120.964C408.289 120.579 407.552 120.386 406.714 120.386C405.898 120.386 405.172 120.579 404.538 120.964C403.903 121.327 403.404 121.837 403.042 122.494C402.679 123.151 402.498 123.911 402.498 124.772C402.498 125.633 402.679 126.404 403.042 127.084C403.404 127.741 403.903 128.263 404.538 128.648C405.172 129.011 405.898 129.192 406.714 129.192ZM426.445 133.34C424.79 133.34 423.294 132.966 421.957 132.218C420.642 131.447 419.588 130.416 418.795 129.124C418.024 127.809 417.639 126.347 417.639 124.738C417.639 123.129 418.024 121.689 418.795 120.42C419.566 119.128 420.62 118.108 421.957 117.36C423.294 116.589 424.779 116.204 426.411 116.204C428.088 116.204 429.584 116.589 430.899 117.36C432.236 118.108 433.29 119.128 434.061 120.42C434.832 121.689 435.217 123.129 435.217 124.738C435.217 126.347 434.832 127.809 434.061 129.124C433.29 130.416 432.236 131.447 430.899 132.218C429.584 132.966 428.1 133.34 426.445 133.34ZM426.411 129.192C427.25 129.192 427.986 129.011 428.621 128.648C429.278 128.263 429.777 127.741 430.117 127.084C430.48 126.404 430.661 125.633 430.661 124.772C430.661 123.911 430.48 123.151 430.117 122.494C429.754 121.837 429.256 121.327 428.621 120.964C427.986 120.579 427.25 120.386 426.411 120.386C425.595 120.386 424.87 120.579 424.235 120.964C423.6 121.327 423.102 121.837 422.739 122.494C422.376 123.151 422.195 123.911 422.195 124.772C422.195 125.633 422.376 126.404 422.739 127.084C423.102 127.741 423.6 128.263 424.235 128.648C424.87 129.011 425.595 129.192 426.411 129.192ZM445.292 140.276C443.547 140.276 442.006 139.959 440.668 139.324C439.331 138.712 438.266 137.839 437.472 136.706L440.294 133.884C440.929 134.632 441.632 135.199 442.402 135.584C443.196 135.992 444.148 136.196 445.258 136.196C446.641 136.196 447.729 135.845 448.522 135.142C449.338 134.439 449.746 133.465 449.746 132.218V128.104L450.494 124.5L449.78 120.896V116.578H454.2V132.15C454.2 133.782 453.815 135.199 453.044 136.4C452.296 137.624 451.254 138.576 449.916 139.256C448.579 139.936 447.038 140.276 445.292 140.276ZM445.088 132.558C443.615 132.558 442.289 132.207 441.11 131.504C439.932 130.779 439.002 129.793 438.322 128.546C437.665 127.299 437.336 125.905 437.336 124.364C437.336 122.823 437.665 121.44 438.322 120.216C439.002 118.992 439.932 118.029 441.11 117.326C442.289 116.601 443.615 116.238 445.088 116.238C446.312 116.238 447.389 116.476 448.318 116.952C449.27 117.428 450.018 118.085 450.562 118.924C451.106 119.74 451.401 120.703 451.446 121.814V126.982C451.401 128.07 451.095 129.045 450.528 129.906C449.984 130.745 449.236 131.402 448.284 131.878C447.355 132.331 446.29 132.558 445.088 132.558ZM445.972 128.512C446.788 128.512 447.491 128.342 448.08 128.002C448.692 127.639 449.168 127.152 449.508 126.54C449.848 125.905 450.018 125.191 450.018 124.398C450.018 123.582 449.848 122.868 449.508 122.256C449.168 121.644 448.692 121.168 448.08 120.828C447.491 120.465 446.788 120.284 445.972 120.284C445.156 120.284 444.442 120.465 443.83 120.828C443.218 121.168 442.742 121.655 442.402 122.29C442.062 122.902 441.892 123.605 441.892 124.398C441.892 125.169 442.062 125.871 442.402 126.506C442.742 127.118 443.218 127.605 443.83 127.968C444.442 128.331 445.156 128.512 445.972 128.512ZM458.454 133V108.418H462.908V133H458.454ZM475.048 133.34C473.326 133.34 471.796 132.977 470.458 132.252C469.121 131.504 468.056 130.484 467.262 129.192C466.492 127.9 466.106 126.427 466.106 124.772C466.106 123.14 466.48 121.689 467.228 120.42C467.999 119.128 469.042 118.108 470.356 117.36C471.671 116.589 473.133 116.204 474.742 116.204C476.329 116.204 477.723 116.567 478.924 117.292C480.148 117.995 481.1 118.969 481.78 120.216C482.483 121.44 482.834 122.834 482.834 124.398C482.834 124.693 482.812 124.999 482.766 125.316C482.744 125.611 482.687 125.951 482.596 126.336L468.792 126.37V123.038L480.522 123.004L478.72 124.398C478.675 123.423 478.494 122.607 478.176 121.95C477.882 121.293 477.44 120.794 476.85 120.454C476.284 120.091 475.581 119.91 474.742 119.91C473.858 119.91 473.088 120.114 472.43 120.522C471.773 120.907 471.263 121.463 470.9 122.188C470.56 122.891 470.39 123.729 470.39 124.704C470.39 125.701 470.572 126.574 470.934 127.322C471.32 128.047 471.864 128.614 472.566 129.022C473.269 129.407 474.085 129.6 475.014 129.6C475.853 129.6 476.612 129.464 477.292 129.192C477.972 128.897 478.562 128.467 479.06 127.9L481.678 130.518C480.885 131.447 479.91 132.15 478.754 132.626C477.621 133.102 476.386 133.34 475.048 133.34Z" fill="black"/>
<path d="M158.01 158.108C140.408 159.129 123.089 160.562 105.423 160.273C83.8251 159.92 62.3564 157.497 40.8684 155.504C40.5127 155.47 40.5036 155.982 40.8365 156.044C62.1076 159.935 83.7164 161.539 105.322 161.997C122.613 162.364 141.081 162.272 158.033 158.423C158.203 158.384 158.198 158.096 158.01 158.108Z" fill="#F2EFE0"/>
<path d="M38.765 155.352C38.487 155.296 38.3627 155.089 38.1009 155.04C37.5231 154.936 36.9564 154.879 36.3734 154.83C35.1841 154.729 34.3387 154.745 33.2029 155.092C33.0133 155.149 32.9658 155.425 33.1773 155.494C34.1504 155.818 34.9099 155.976 35.946 155.987C36.4572 155.993 36.9956 156.046 37.5039 155.989C37.9952 155.934 38.298 155.718 38.7473 155.635C38.8825 155.611 38.9145 155.381 38.7658 155.35L38.765 155.352Z" fill="#F2EFE0"/>
<path d="M577.854 75.8733C578.36 74.8669 578.697 74.0365 579.191 73.2561C584.143 65.3637 591.037 58.7693 598.639 52.6863C599.532 51.9759 600.604 51.3424 601.736 50.9931C602.346 50.8033 603.458 51.0434 604.047 51.443C604.488 51.7483 604.684 52.672 604.492 53.1403C604.143 54.0372 603.577 54.9189 602.87 55.6619C598.22 60.5735 593.547 65.4582 588.825 70.3115C587.053 72.1226 585.204 73.8976 583.382 75.6772C582.782 76.2793 582.133 76.85 581.465 77.3718C580.728 77.9728 579.722 78.23 578.87 77.6021C578.311 77.185 577.684 76.8471 577.854 75.8733Z" fill="black"/>
<path d="M609.826 115.431C608.578 115.03 607.109 114.636 605.716 114.119C600.225 112.063 594.735 110.007 589.278 107.912C588.095 107.454 586.969 106.824 585.962 106.146C584.608 105.248 584.26 104.252 584.675 103.298C585.089 102.344 586.156 101.892 587.839 102.164C588.989 102.342 590.211 102.579 591.265 102.991C598.171 105.75 605.069 108.554 611.937 111.375C612.705 111.692 613.477 112.146 614.013 112.696C615.369 114.051 614.591 115.671 612.545 115.747C611.745 115.766 610.878 115.546 609.826 115.431Z" fill="black"/>
<path d="M545.318 42.9925C545.607 41.971 546.055 40.9775 546.553 40.0154C547.005 39.1593 547.863 38.648 549.078 38.7693C550.103 38.8801 551.048 39.9123 551.015 41.0469C550.968 42.567 550.892 44.1046 550.552 45.5734C549.53 50.002 548.398 54.4341 547.242 58.8394C546.85 60.2989 546.35 61.7397 545.798 63.1713C545.602 63.6616 545.296 64.1555 544.88 64.4932C543.749 65.4587 542.059 65.0718 541.606 63.738C541.353 62.9866 541.34 62.1176 541.472 61.3652C541.772 58.8631 544.329 46.6058 545.318 42.9925Z" fill="black"/>
<path d="M551.569 98.9597C537.818 87.5395 523.082 82.0086 505.285 80.3656C504.929 80.3319 504.97 79.8002 505.302 79.7566C520.991 77.6366 543.689 83.9587 551.855 98.7488C551.948 98.9164 551.702 99.0715 551.567 98.96L551.569 98.9597Z" fill="#F2EFE0"/>
<defs>
<clipPath id="clip0_1360_705">
<rect width="34" height="34" fill="white" transform="translate(95 103.5)"/>
</clipPath>
</defs>
</svg>
