<svg width="572" height="137" viewBox="0 0 572 137" fill="none" xmlns="http://www.w3.org/2000/svg">
<rect y="19" width="572" height="101" rx="50" fill="black"/>
<rect width="572" height="101" rx="50" fill="#CCB4AC"/>
<g clip-path="url(#clip0_1360_705)">
<path d="M128.668 50.8916C128.668 49.736 128.575 48.5741 128.375 47.4373H112.34V53.9836H121.522C121.141 56.095 119.917 57.9627 118.124 59.1495V63.3972H123.603C126.82 60.4363 128.668 56.0637 128.668 50.8916Z" fill="#4285F4"/>
<path d="M112.34 67.5012C116.925 67.5012 120.792 65.9958 123.609 63.3972L118.13 59.1495C116.606 60.1865 114.639 60.7736 112.346 60.7736C107.911 60.7736 104.151 57.7815 102.801 53.7588H97.1483V58.1376C100.034 63.8782 105.912 67.5012 112.34 67.5012Z" fill="#34A853"/>
<path d="M102.795 53.7587C102.083 51.6474 102.083 49.3611 102.795 47.2498V42.871H97.1483C94.7372 47.6746 94.7372 53.3339 97.1483 58.1375L102.795 53.7587Z" fill="#FBBC04"/>
<path d="M112.34 40.2287C114.764 40.1912 117.106 41.1032 118.861 42.7773L123.715 37.9237C120.642 35.0378 116.563 33.4512 112.34 33.5011C105.912 33.5011 100.034 37.1241 97.1483 42.871L102.795 47.2498C104.138 43.2208 107.905 40.2287 112.34 40.2287Z" fill="#EA4335"/>
</g>
<path d="M160.915 63.34C159.17 63.34 157.549 63.034 156.053 62.422C154.557 61.7873 153.243 60.9147 152.109 59.804C150.999 58.6707 150.137 57.356 149.525 55.86C148.936 54.364 148.641 52.7547 148.641 51.032C148.641 49.3093 148.936 47.7 149.525 46.204C150.137 44.708 150.999 43.4047 152.109 42.294C153.243 41.1833 154.546 40.3107 156.019 39.676C157.515 39.0413 159.147 38.724 160.915 38.724C162.819 38.724 164.497 39.0413 165.947 39.676C167.398 40.288 168.679 41.138 169.789 42.226L166.661 45.354C166.004 44.6287 165.199 44.062 164.247 43.654C163.295 43.246 162.185 43.042 160.915 43.042C159.805 43.042 158.785 43.2347 157.855 43.62C156.949 43.9827 156.155 44.5267 155.475 45.252C154.795 45.9547 154.274 46.8047 153.911 47.802C153.549 48.7767 153.367 49.8533 153.367 51.032C153.367 52.2333 153.549 53.3213 153.911 54.296C154.274 55.2707 154.795 56.1207 155.475 56.846C156.155 57.5487 156.949 58.0927 157.855 58.478C158.785 58.8633 159.805 59.056 160.915 59.056C162.253 59.056 163.397 58.852 164.349 58.444C165.324 58.036 166.14 57.458 166.797 56.71L169.925 59.838C168.815 60.9487 167.523 61.81 166.049 62.422C164.576 63.034 162.865 63.34 160.915 63.34ZM180.29 63.34C178.636 63.34 177.14 62.966 175.802 62.218C174.488 61.4473 173.434 60.416 172.64 59.124C171.87 57.8093 171.484 56.3473 171.484 54.738C171.484 53.1287 171.87 51.6893 172.64 50.42C173.411 49.128 174.465 48.108 175.802 47.36C177.14 46.5893 178.624 46.204 180.256 46.204C181.934 46.204 183.43 46.5893 184.744 47.36C186.082 48.108 187.136 49.128 187.906 50.42C188.677 51.6893 189.062 53.1287 189.062 54.738C189.062 56.3473 188.677 57.8093 187.906 59.124C187.136 60.416 186.082 61.4473 184.744 62.218C183.43 62.966 181.945 63.34 180.29 63.34ZM180.256 59.192C181.095 59.192 181.832 59.0107 182.466 58.648C183.124 58.2627 183.622 57.7413 183.962 57.084C184.325 56.404 184.506 55.6333 184.506 54.772C184.506 53.9107 184.325 53.1513 183.962 52.494C183.6 51.8367 183.101 51.3267 182.466 50.964C181.832 50.5787 181.095 50.386 180.256 50.386C179.44 50.386 178.715 50.5787 178.08 50.964C177.446 51.3267 176.947 51.8367 176.584 52.494C176.222 53.1513 176.04 53.9107 176.04 54.772C176.04 55.6333 176.222 56.404 176.584 57.084C176.947 57.7413 177.446 58.2627 178.08 58.648C178.715 59.0107 179.44 59.192 180.256 59.192ZM203.32 63V53.582C203.32 52.6073 203.014 51.814 202.402 51.202C201.79 50.59 200.996 50.284 200.022 50.284C199.387 50.284 198.82 50.42 198.322 50.692C197.823 50.964 197.426 51.3493 197.132 51.848C196.86 52.3467 196.724 52.9247 196.724 53.582L194.99 52.698C194.99 51.406 195.262 50.284 195.806 49.332C196.372 48.3573 197.143 47.598 198.118 47.054C199.115 46.51 200.237 46.238 201.484 46.238C202.685 46.238 203.762 46.544 204.714 47.156C205.666 47.7453 206.414 48.5273 206.958 49.502C207.502 50.454 207.774 51.4853 207.774 52.596V63H203.32ZM192.27 63V46.578H196.724V63H192.27ZM213.916 63V39.744H218.37V63H213.916ZM210.074 50.488V46.578H222.212V50.488H210.074ZM225.057 63V46.578H229.545V63H225.057ZM227.301 43.926C226.576 43.926 225.975 43.688 225.499 43.212C225.023 42.7133 224.785 42.1013 224.785 41.376C224.785 40.6733 225.023 40.0727 225.499 39.574C225.975 39.0753 226.576 38.826 227.301 38.826C228.049 38.826 228.65 39.0753 229.103 39.574C229.579 40.0727 229.817 40.6733 229.817 41.376C229.817 42.1013 229.579 42.7133 229.103 43.212C228.65 43.688 228.049 43.926 227.301 43.926ZM244.881 63V53.582C244.881 52.6073 244.575 51.814 243.963 51.202C243.351 50.59 242.557 50.284 241.583 50.284C240.948 50.284 240.381 50.42 239.883 50.692C239.384 50.964 238.987 51.3493 238.693 51.848C238.421 52.3467 238.285 52.9247 238.285 53.582L236.551 52.698C236.551 51.406 236.823 50.284 237.367 49.332C237.933 48.3573 238.704 47.598 239.679 47.054C240.676 46.51 241.798 46.238 243.045 46.238C244.246 46.238 245.323 46.544 246.275 47.156C247.227 47.7453 247.975 48.5273 248.519 49.502C249.063 50.454 249.335 51.4853 249.335 52.596V63H244.881ZM233.831 63V46.578H238.285V63H233.831ZM260.266 63.34C258.816 63.34 257.524 63.034 256.39 62.422C255.28 61.81 254.407 60.96 253.772 59.872C253.138 58.784 252.82 57.526 252.82 56.098V46.578H257.308V55.996C257.308 56.676 257.422 57.2653 257.648 57.764C257.875 58.24 258.215 58.6027 258.668 58.852C259.122 59.1013 259.654 59.226 260.266 59.226C261.196 59.226 261.921 58.9427 262.442 58.376C262.964 57.8093 263.224 57.016 263.224 55.996V46.578H267.678V56.098C267.678 57.5487 267.361 58.818 266.726 59.906C266.114 60.994 265.242 61.844 264.108 62.456C262.998 63.0453 261.717 63.34 260.266 63.34ZM279.419 63.34C277.697 63.34 276.167 62.9773 274.829 62.252C273.492 61.504 272.427 60.484 271.633 59.192C270.863 57.9 270.477 56.4267 270.477 54.772C270.477 53.14 270.851 51.6893 271.599 50.42C272.37 49.128 273.413 48.108 274.727 47.36C276.042 46.5893 277.504 46.204 279.113 46.204C280.7 46.204 282.094 46.5667 283.295 47.292C284.519 47.9947 285.471 48.9693 286.151 50.216C286.854 51.44 287.205 52.834 287.205 54.398C287.205 54.6927 287.183 54.9987 287.137 55.316C287.115 55.6107 287.058 55.9507 286.967 56.336L273.163 56.37V53.038L284.893 53.004L283.091 54.398C283.046 53.4233 282.865 52.6073 282.547 51.95C282.253 51.2927 281.811 50.794 281.221 50.454C280.655 50.0913 279.952 49.91 279.113 49.91C278.229 49.91 277.459 50.114 276.801 50.522C276.144 50.9073 275.634 51.4627 275.271 52.188C274.931 52.8907 274.761 53.7293 274.761 54.704C274.761 55.7013 274.943 56.574 275.305 57.322C275.691 58.0473 276.235 58.614 276.937 59.022C277.64 59.4073 278.456 59.6 279.385 59.6C280.224 59.6 280.983 59.464 281.663 59.192C282.343 58.8973 282.933 58.4667 283.431 57.9L286.049 60.518C285.256 61.4473 284.281 62.15 283.125 62.626C281.992 63.102 280.757 63.34 279.419 63.34ZM301.667 63L295.513 46.578H300.001L304.013 58.512L302.653 58.546L306.767 46.578H309.997L314.111 58.546L312.751 58.512L316.763 46.578H321.251L315.131 63H311.901L307.753 51.644H309.011L304.863 63H301.667ZM323.486 63V46.578H327.974V63H323.486ZM325.73 43.926C325.004 43.926 324.404 43.688 323.928 43.212C323.452 42.7133 323.214 42.1013 323.214 41.376C323.214 40.6733 323.452 40.0727 323.928 39.574C324.404 39.0753 325.004 38.826 325.73 38.826C326.478 38.826 327.078 39.0753 327.532 39.574C328.008 40.0727 328.246 40.6733 328.246 41.376C328.246 42.1013 328.008 42.7133 327.532 43.212C327.078 43.688 326.478 43.926 325.73 43.926ZM334.673 63V39.744H339.127V63H334.673ZM330.831 50.488V46.578H342.969V50.488H330.831ZM356.864 63V53.582C356.864 52.6073 356.558 51.814 355.946 51.202C355.334 50.59 354.541 50.284 353.566 50.284C352.932 50.284 352.365 50.42 351.866 50.692C351.368 50.964 350.971 51.3493 350.676 51.848C350.404 52.3467 350.268 52.9247 350.268 53.582L348.534 52.698C348.534 51.406 348.806 50.284 349.35 49.332C349.894 48.3573 350.642 47.598 351.594 47.054C352.569 46.51 353.68 46.238 354.926 46.238C356.173 46.238 357.272 46.51 358.224 47.054C359.199 47.598 359.958 48.346 360.502 49.298C361.046 50.25 361.318 51.3493 361.318 52.596V63H356.864ZM345.814 63V38.418H350.268V63H345.814ZM383.753 63.34C382.053 63.34 380.455 63.034 378.959 62.422C377.485 61.7873 376.182 60.9033 375.049 59.77C373.938 58.6367 373.065 57.3333 372.431 55.86C371.819 54.364 371.513 52.7547 371.513 51.032C371.513 49.2867 371.83 47.6773 372.465 46.204C373.099 44.708 373.983 43.4047 375.117 42.294C376.25 41.1607 377.576 40.288 379.095 39.676C380.613 39.0413 382.257 38.724 384.025 38.724C385.997 38.724 387.81 39.098 389.465 39.846C391.119 40.5713 392.491 41.6027 393.579 42.94L390.451 46.068C389.703 45.0933 388.773 44.3453 387.663 43.824C386.552 43.3027 385.328 43.042 383.991 43.042C382.472 43.042 381.123 43.382 379.945 44.062C378.789 44.7193 377.882 45.6487 377.225 46.85C376.567 48.0287 376.239 49.4113 376.239 50.998C376.239 52.5847 376.556 53.99 377.191 55.214C377.848 56.4153 378.732 57.356 379.843 58.036C380.976 58.716 382.268 59.056 383.719 59.056C385.215 59.056 386.495 58.784 387.561 58.24C388.626 57.6733 389.442 56.8573 390.009 55.792C390.575 54.704 390.859 53.378 390.859 51.814L393.885 53.888L383.447 53.786V49.774H395.619V50.42C395.619 53.276 395.109 55.6673 394.089 57.594C393.069 59.498 391.663 60.9373 389.873 61.912C388.105 62.864 386.065 63.34 383.753 63.34ZM406.748 63.34C405.093 63.34 403.597 62.966 402.26 62.218C400.945 61.4473 399.891 60.416 399.098 59.124C398.327 57.8093 397.942 56.3473 397.942 54.738C397.942 53.1287 398.327 51.6893 399.098 50.42C399.868 49.128 400.922 48.108 402.26 47.36C403.597 46.5893 405.082 46.204 406.714 46.204C408.391 46.204 409.887 46.5893 411.202 47.36C412.539 48.108 413.593 49.128 414.364 50.42C415.134 51.6893 415.52 53.1287 415.52 54.738C415.52 56.3473 415.134 57.8093 414.364 59.124C413.593 60.416 412.539 61.4473 411.202 62.218C409.887 62.966 408.402 63.34 406.748 63.34ZM406.714 59.192C407.552 59.192 408.289 59.0107 408.924 58.648C409.581 58.2627 410.08 57.7413 410.42 57.084C410.782 56.404 410.964 55.6333 410.964 54.772C410.964 53.9107 410.782 53.1513 410.42 52.494C410.057 51.8367 409.558 51.3267 408.924 50.964C408.289 50.5787 407.552 50.386 406.714 50.386C405.898 50.386 405.172 50.5787 404.538 50.964C403.903 51.3267 403.404 51.8367 403.042 52.494C402.679 53.1513 402.498 53.9107 402.498 54.772C402.498 55.6333 402.679 56.404 403.042 57.084C403.404 57.7413 403.903 58.2627 404.538 58.648C405.172 59.0107 405.898 59.192 406.714 59.192ZM426.445 63.34C424.79 63.34 423.294 62.966 421.957 62.218C420.642 61.4473 419.588 60.416 418.795 59.124C418.024 57.8093 417.639 56.3473 417.639 54.738C417.639 53.1287 418.024 51.6893 418.795 50.42C419.566 49.128 420.62 48.108 421.957 47.36C423.294 46.5893 424.779 46.204 426.411 46.204C428.088 46.204 429.584 46.5893 430.899 47.36C432.236 48.108 433.29 49.128 434.061 50.42C434.832 51.6893 435.217 53.1287 435.217 54.738C435.217 56.3473 434.832 57.8093 434.061 59.124C433.29 60.416 432.236 61.4473 430.899 62.218C429.584 62.966 428.1 63.34 426.445 63.34ZM426.411 59.192C427.25 59.192 427.986 59.0107 428.621 58.648C429.278 58.2627 429.777 57.7413 430.117 57.084C430.48 56.404 430.661 55.6333 430.661 54.772C430.661 53.9107 430.48 53.1513 430.117 52.494C429.754 51.8367 429.256 51.3267 428.621 50.964C427.986 50.5787 427.25 50.386 426.411 50.386C425.595 50.386 424.87 50.5787 424.235 50.964C423.6 51.3267 423.102 51.8367 422.739 52.494C422.376 53.1513 422.195 53.9107 422.195 54.772C422.195 55.6333 422.376 56.404 422.739 57.084C423.102 57.7413 423.6 58.2627 424.235 58.648C424.87 59.0107 425.595 59.192 426.411 59.192ZM445.292 70.276C443.547 70.276 442.006 69.9587 440.668 69.324C439.331 68.712 438.266 67.8393 437.472 66.706L440.294 63.884C440.929 64.632 441.632 65.1987 442.402 65.584C443.196 65.992 444.148 66.196 445.258 66.196C446.641 66.196 447.729 65.8447 448.522 65.142C449.338 64.4393 449.746 63.4647 449.746 62.218V58.104L450.494 54.5L449.78 50.896V46.578H454.2V62.15C454.2 63.782 453.815 65.1987 453.044 66.4C452.296 67.624 451.254 68.576 449.916 69.256C448.579 69.936 447.038 70.276 445.292 70.276ZM445.088 62.558C443.615 62.558 442.289 62.2067 441.11 61.504C439.932 60.7787 439.002 59.7927 438.322 58.546C437.665 57.2993 437.336 55.9053 437.336 54.364C437.336 52.8227 437.665 51.44 438.322 50.216C439.002 48.992 439.932 48.0287 441.11 47.326C442.289 46.6007 443.615 46.238 445.088 46.238C446.312 46.238 447.389 46.476 448.318 46.952C449.27 47.428 450.018 48.0853 450.562 48.924C451.106 49.74 451.401 50.7033 451.446 51.814V56.982C451.401 58.07 451.095 59.0447 450.528 59.906C449.984 60.7447 449.236 61.402 448.284 61.878C447.355 62.3313 446.29 62.558 445.088 62.558ZM445.972 58.512C446.788 58.512 447.491 58.342 448.08 58.002C448.692 57.6393 449.168 57.152 449.508 56.54C449.848 55.9053 450.018 55.1913 450.018 54.398C450.018 53.582 449.848 52.868 449.508 52.256C449.168 51.644 448.692 51.168 448.08 50.828C447.491 50.4653 446.788 50.284 445.972 50.284C445.156 50.284 444.442 50.4653 443.83 50.828C443.218 51.168 442.742 51.6553 442.402 52.29C442.062 52.902 441.892 53.6047 441.892 54.398C441.892 55.1687 442.062 55.8713 442.402 56.506C442.742 57.118 443.218 57.6053 443.83 57.968C444.442 58.3307 445.156 58.512 445.972 58.512ZM458.454 63V38.418H462.908V63H458.454ZM475.048 63.34C473.326 63.34 471.796 62.9773 470.458 62.252C469.121 61.504 468.056 60.484 467.262 59.192C466.492 57.9 466.106 56.4267 466.106 54.772C466.106 53.14 466.48 51.6893 467.228 50.42C467.999 49.128 469.042 48.108 470.356 47.36C471.671 46.5893 473.133 46.204 474.742 46.204C476.329 46.204 477.723 46.5667 478.924 47.292C480.148 47.9947 481.1 48.9693 481.78 50.216C482.483 51.44 482.834 52.834 482.834 54.398C482.834 54.6927 482.812 54.9987 482.766 55.316C482.744 55.6107 482.687 55.9507 482.596 56.336L468.792 56.37V53.038L480.522 53.004L478.72 54.398C478.675 53.4233 478.494 52.6073 478.176 51.95C477.882 51.2927 477.44 50.794 476.85 50.454C476.284 50.0913 475.581 49.91 474.742 49.91C473.858 49.91 473.088 50.114 472.43 50.522C471.773 50.9073 471.263 51.4627 470.9 52.188C470.56 52.8907 470.39 53.7293 470.39 54.704C470.39 55.7013 470.572 56.574 470.934 57.322C471.32 58.0473 471.864 58.614 472.566 59.022C473.269 59.4073 474.085 59.6 475.014 59.6C475.853 59.6 476.612 59.464 477.292 59.192C477.972 58.8973 478.562 58.4667 479.06 57.9L481.678 60.518C480.885 61.4473 479.91 62.15 478.754 62.626C477.621 63.102 476.386 63.34 475.048 63.34Z" fill="black"/>
<path d="M158.01 88.1078C140.408 89.1288 123.089 90.5622 105.423 90.2733C83.8251 89.9203 62.3564 87.4965 40.8684 85.5037C40.5127 85.4695 40.5036 85.9823 40.8365 86.0439C62.1076 89.9348 83.7164 91.5391 105.322 91.9973C122.613 92.3643 141.081 92.2715 158.033 88.4234C158.203 88.3838 158.198 88.0958 158.01 88.1078Z" fill="#F2EFE0"/>
<path d="M38.765 85.352C38.487 85.2956 38.3627 85.0886 38.1009 85.0404C37.5231 84.9363 36.9564 84.8791 36.3734 84.83C35.1841 84.7292 34.3387 84.7451 33.2029 85.0918C33.0133 85.1491 32.9658 85.4247 33.1773 85.4937C34.1504 85.8183 34.9099 85.9759 35.946 85.9869C36.4572 85.9928 36.9956 86.0457 37.5039 85.9885C37.9952 85.9336 38.298 85.7176 38.7473 85.635C38.8825 85.6106 38.9145 85.3811 38.7658 85.3496L38.765 85.352Z" fill="#F2EFE0"/>
<path d="M551.569 28.9597C537.818 17.5395 523.082 12.0086 505.285 10.3656C504.929 10.3319 504.97 9.80015 505.302 9.75663C520.991 7.63664 543.689 13.9587 551.855 28.7488C551.948 28.9164 551.702 29.0715 551.567 28.96L551.569 28.9597Z" fill="#F2EFE0"/>
<defs>
<clipPath id="clip0_1360_705">
<rect width="34" height="34" fill="white" transform="translate(95 33.5)"/>
</clipPath>
</defs>
</svg>
