<svg width="32" height="32" viewBox="0 0 32 32" fill="none" xmlns="http://www.w3.org/2000/svg">
<path d="M16.0082 0.242432C9.42836 0.242432 7.50399 0.24922 7.12993 0.28025C5.77963 0.392492 4.93939 0.605098 4.02399 1.06086C3.31854 1.41116 2.76218 1.81722 2.21309 2.38643C1.21309 3.42449 0.607025 4.70158 0.387631 6.21964C0.280964 6.95661 0.249934 7.10692 0.243631 10.8713C0.241207 12.1261 0.243631 13.7775 0.243631 15.9925C0.243631 22.567 0.250904 24.4895 0.282419 24.8628C0.39151 26.1767 0.597571 27.0034 1.03393 27.9076C1.86787 29.6386 3.4606 30.9379 5.33696 31.4228C5.98666 31.5901 6.70424 31.6822 7.62545 31.7258C8.01575 31.7428 11.9939 31.7549 15.9745 31.7549C19.9551 31.7549 23.9357 31.7501 24.3164 31.7307C25.383 31.6805 26.0024 31.5973 26.6873 31.4204C28.5757 30.9331 30.1394 29.6531 30.9903 27.8979C31.4182 27.0155 31.6351 26.1573 31.7333 24.912C31.7547 24.6405 31.7636 20.3115 31.7636 15.9884C31.7636 11.6645 31.7539 7.34352 31.7326 7.07201C31.6332 5.80655 31.4162 4.95564 30.9745 4.05625C30.6121 3.32001 30.2097 2.77019 29.6254 2.20801C28.5828 1.21213 27.3076 0.606068 25.7881 0.386916C25.0519 0.280492 24.9052 0.248977 21.1379 0.242432H16.0082Z" fill="url(#paint0_radial_1442_260)"/>
<path d="M16.0082 0.242432C9.42836 0.242432 7.50399 0.24922 7.12993 0.28025C5.77963 0.392492 4.93939 0.605098 4.02399 1.06086C3.31854 1.41116 2.76218 1.81722 2.21309 2.38643C1.21309 3.42449 0.607025 4.70158 0.387631 6.21964C0.280964 6.95661 0.249934 7.10692 0.243631 10.8713C0.241207 12.1261 0.243631 13.7775 0.243631 15.9925C0.243631 22.567 0.250904 24.4895 0.282419 24.8628C0.39151 26.1767 0.597571 27.0034 1.03393 27.9076C1.86787 29.6386 3.4606 30.9379 5.33696 31.4228C5.98666 31.5901 6.70424 31.6822 7.62545 31.7258C8.01575 31.7428 11.9939 31.7549 15.9745 31.7549C19.9551 31.7549 23.9357 31.7501 24.3164 31.7307C25.383 31.6805 26.0024 31.5973 26.6873 31.4204C28.5757 30.9331 30.1394 29.6531 30.9903 27.8979C31.4182 27.0155 31.6351 26.1573 31.7333 24.912C31.7547 24.6405 31.7636 20.3115 31.7636 15.9884C31.7636 11.6645 31.7539 7.34352 31.7326 7.07201C31.6332 5.80655 31.4162 4.95564 30.9745 4.05625C30.6121 3.32001 30.2097 2.77019 29.6254 2.20801C28.5828 1.21213 27.3076 0.606068 25.7881 0.386916C25.0519 0.280492 24.9052 0.248977 21.1379 0.242432H16.0082Z" fill="url(#paint1_radial_1442_260)"/>
<path d="M16.001 4.36377C12.8407 4.36377 12.4441 4.37759 11.2029 4.43407C9.96413 4.4908 9.11856 4.68692 8.37868 4.97468C7.61334 5.27189 6.96413 5.66947 6.31734 6.3165C5.67007 6.96328 5.2725 7.6125 4.97431 8.37759C4.68583 9.11771 4.48947 9.96353 4.43371 11.2018C4.37819 12.443 4.36365 12.8399 4.36365 16.0001C4.36365 19.1604 4.37771 19.5558 4.43395 20.797C4.49092 22.0358 4.68704 22.8813 4.97456 23.6212C5.27201 24.3866 5.66959 25.0358 6.31662 25.6826C6.96316 26.3298 7.61237 26.7284 8.37722 27.0256C9.11759 27.3133 9.9634 27.5095 11.2019 27.5662C12.4432 27.6227 12.8395 27.6365 15.9995 27.6365C19.16 27.6365 19.5554 27.6227 20.7966 27.5662C22.0354 27.5095 22.8819 27.3133 23.6223 27.0256C24.3874 26.7284 25.0356 26.3298 25.6822 25.6826C26.3295 25.0358 26.727 24.3866 27.0252 23.6215C27.3113 22.8813 27.5076 22.0355 27.5658 20.7972C27.6216 19.556 27.6361 19.1604 27.6361 16.0001C27.6361 12.8399 27.6216 12.4433 27.5658 11.2021C27.5076 9.96328 27.3113 9.11771 27.0252 8.37783C26.727 7.6125 26.3295 6.96328 25.6822 6.3165C25.0349 5.66922 24.3876 5.27165 23.6216 4.97468C22.8798 4.68692 22.0337 4.4908 20.7949 4.43407C19.5537 4.37759 19.1586 4.36377 15.9973 4.36377H16.001ZM14.9571 6.46074C15.2669 6.46025 15.6126 6.46074 16.001 6.46074C19.1079 6.46074 19.4761 6.47189 20.703 6.52765C21.8376 6.57953 22.4533 6.7691 22.8635 6.92838C23.4066 7.13928 23.7937 7.39141 24.2007 7.79868C24.608 8.20595 24.8601 8.59383 25.0715 9.13686C25.2308 9.54656 25.4206 10.1623 25.4722 11.2969C25.528 12.5235 25.5401 12.892 25.5401 15.9975C25.5401 19.1029 25.528 19.4714 25.4722 20.6981C25.4204 21.8326 25.2308 22.4484 25.0715 22.8581C24.8606 23.4011 24.608 23.7878 24.2007 24.1948C23.7935 24.6021 23.4068 24.8542 22.8635 25.0651C22.4538 25.2251 21.8376 25.4142 20.703 25.4661C19.4764 25.5218 19.1079 25.534 16.001 25.534C12.8938 25.534 12.5256 25.5218 11.2989 25.4661C10.1644 25.4137 9.54862 25.2241 9.13819 25.0649C8.59516 24.854 8.20728 24.6018 7.80001 24.1946C7.39274 23.7873 7.14062 23.4004 6.92922 22.8571C6.76995 22.4474 6.58013 21.8316 6.5285 20.6971C6.47274 19.4704 6.46159 19.102 6.46159 15.9946C6.46159 12.8872 6.47274 12.5206 6.5285 11.294C6.58037 10.1594 6.76995 9.54365 6.92922 9.13347C7.14013 8.59044 7.39274 8.20256 7.80001 7.79528C8.20728 7.38801 8.59516 7.13589 9.13819 6.9245C9.54837 6.7645 10.1644 6.57541 11.2989 6.52328C12.3724 6.4748 12.7884 6.46025 14.9571 6.45783V6.46074ZM22.2124 8.39286C21.4415 8.39286 20.816 9.01759 20.816 9.78874C20.816 10.5596 21.4415 11.1851 22.2124 11.1851C22.9833 11.1851 23.6087 10.5596 23.6087 9.78874C23.6087 9.01783 22.9833 8.39238 22.2124 8.39238V8.39286ZM16.001 10.0244C12.7009 10.0244 10.0252 12.7 10.0252 16.0001C10.0252 19.3003 12.7009 21.9747 16.001 21.9747C19.3011 21.9747 21.9758 19.3003 21.9758 16.0001C21.9758 12.7 19.3011 10.0244 16.001 10.0244ZM16.001 12.1213C18.143 12.1213 19.8798 13.8578 19.8798 16.0001C19.8798 18.1422 18.143 19.8789 16.001 19.8789C13.8587 19.8789 12.1222 18.1422 12.1222 16.0001C12.1222 13.8578 13.8587 12.1213 16.001 12.1213Z" fill="white"/>
<defs>
<radialGradient id="paint0_radial_1442_260" cx="0" cy="0" r="1" gradientUnits="userSpaceOnUse" gradientTransform="translate(8.61538 34.182) rotate(-90) scale(31.2312 29.0554)">
<stop stop-color="#FFDD55"/>
<stop offset="0.1" stop-color="#FFDD55"/>
<stop offset="0.5" stop-color="#FF543E"/>
<stop offset="1" stop-color="#C837AB"/>
</radialGradient>
<radialGradient id="paint1_radial_1442_260" cx="0" cy="0" r="1" gradientUnits="userSpaceOnUse" gradientTransform="translate(-5.03739 2.51254) rotate(78.6776) scale(13.9606 57.5608)">
<stop stop-color="#3771C8"/>
<stop offset="0.128" stop-color="#3771C8"/>
<stop offset="1" stop-color="#6600FF" stop-opacity="0"/>
</radialGradient>
</defs>
</svg>
