<svg width="660" height="257" viewBox="0 0 660 257" fill="none" xmlns="http://www.w3.org/2000/svg">
<rect y="90" width="572" height="101" rx="50" fill="#F2EFE0"/>
<rect y="71" width="572" height="101" rx="50" fill="#232C43"/>
<path d="M199.619 126.95V121.4H207.769C208.835 121.4 209.802 121.183 210.669 120.75C211.535 120.317 212.219 119.7 212.719 118.9C213.219 118.067 213.469 117.067 213.469 115.9C213.469 114.767 213.219 113.783 212.719 112.95C212.219 112.117 211.535 111.483 210.669 111.05C209.802 110.617 208.835 110.4 207.769 110.4H199.619V104.85H208.469C210.702 104.85 212.702 105.3 214.469 106.2C216.269 107.1 217.685 108.383 218.719 110.05C219.752 111.683 220.269 113.633 220.269 115.9C220.269 118.167 219.752 120.133 218.719 121.8C217.685 123.433 216.269 124.7 214.469 125.6C212.702 126.5 210.702 126.95 208.469 126.95H199.619ZM194.619 140V104.85H201.419V140H194.619ZM225.229 140V115.85H231.779V140H225.229ZM231.779 126.65L229.229 124.95C229.529 121.983 230.396 119.65 231.829 117.95C233.262 116.217 235.329 115.35 238.029 115.35C239.196 115.35 240.246 115.55 241.179 115.95C242.112 116.317 242.962 116.933 243.729 117.8L239.629 122.5C239.262 122.1 238.812 121.8 238.279 121.6C237.779 121.4 237.196 121.3 236.529 121.3C235.129 121.3 233.979 121.75 233.079 122.65C232.212 123.517 231.779 124.85 231.779 126.65ZM257.196 140.5C254.763 140.5 252.563 139.95 250.596 138.85C248.663 137.717 247.113 136.2 245.946 134.3C244.813 132.367 244.246 130.217 244.246 127.85C244.246 125.483 244.813 123.367 245.946 121.5C247.08 119.6 248.63 118.1 250.596 117C252.563 115.867 254.746 115.3 257.146 115.3C259.613 115.3 261.813 115.867 263.746 117C265.713 118.1 267.263 119.6 268.396 121.5C269.53 123.367 270.096 125.483 270.096 127.85C270.096 130.217 269.53 132.367 268.396 134.3C267.263 136.2 265.713 137.717 263.746 138.85C261.813 139.95 259.63 140.5 257.196 140.5ZM257.146 134.4C258.38 134.4 259.463 134.133 260.396 133.6C261.363 133.033 262.096 132.267 262.596 131.3C263.13 130.3 263.396 129.167 263.396 127.9C263.396 126.633 263.13 125.517 262.596 124.55C262.063 123.583 261.33 122.833 260.396 122.3C259.463 121.733 258.38 121.45 257.146 121.45C255.946 121.45 254.88 121.733 253.946 122.3C253.013 122.833 252.28 123.583 251.746 124.55C251.213 125.517 250.946 126.633 250.946 127.9C250.946 129.167 251.213 130.3 251.746 131.3C252.28 132.267 253.013 133.033 253.946 133.6C254.88 134.133 255.946 134.4 257.146 134.4ZM286.213 140.5C283.746 140.5 281.53 139.95 279.563 138.85C277.596 137.75 276.046 136.25 274.913 134.35C273.78 132.45 273.213 130.317 273.213 127.95C273.213 125.55 273.78 123.4 274.913 121.5C276.046 119.6 277.596 118.1 279.563 117C281.563 115.867 283.78 115.3 286.213 115.3C288.113 115.3 289.863 115.65 291.463 116.35C293.063 117.05 294.446 118.05 295.613 119.35L291.413 123.6C290.78 122.9 290.013 122.367 289.113 122C288.246 121.633 287.28 121.45 286.213 121.45C285.013 121.45 283.93 121.733 282.963 122.3C282.03 122.833 281.28 123.583 280.713 124.55C280.18 125.483 279.913 126.6 279.913 127.9C279.913 129.167 280.18 130.3 280.713 131.3C281.28 132.267 282.03 133.033 282.963 133.6C283.93 134.133 285.013 134.4 286.213 134.4C287.313 134.4 288.296 134.217 289.163 133.85C290.063 133.45 290.83 132.883 291.463 132.15L295.713 136.4C294.48 137.733 293.063 138.75 291.463 139.45C289.863 140.15 288.113 140.5 286.213 140.5ZM310.935 140.5C308.402 140.5 306.152 139.967 304.185 138.9C302.219 137.8 300.652 136.3 299.485 134.4C298.352 132.5 297.785 130.333 297.785 127.9C297.785 125.5 298.335 123.367 299.435 121.5C300.569 119.6 302.102 118.1 304.035 117C305.969 115.867 308.119 115.3 310.485 115.3C312.819 115.3 314.869 115.833 316.635 116.9C318.435 117.933 319.835 119.367 320.835 121.2C321.869 123 322.385 125.05 322.385 127.35C322.385 127.783 322.352 128.233 322.285 128.7C322.252 129.133 322.169 129.633 322.035 130.2L301.735 130.25V125.35L318.985 125.3L316.335 127.35C316.269 125.917 316.002 124.717 315.535 123.75C315.102 122.783 314.452 122.05 313.585 121.55C312.752 121.017 311.719 120.75 310.485 120.75C309.185 120.75 308.052 121.05 307.085 121.65C306.119 122.217 305.369 123.033 304.835 124.1C304.335 125.133 304.085 126.367 304.085 127.8C304.085 129.267 304.352 130.55 304.885 131.65C305.452 132.717 306.252 133.55 307.285 134.15C308.319 134.717 309.519 135 310.885 135C312.119 135 313.235 134.8 314.235 134.4C315.235 133.967 316.102 133.333 316.835 132.5L320.685 136.35C319.519 137.717 318.085 138.75 316.385 139.45C314.719 140.15 312.902 140.5 310.935 140.5ZM338.486 140.5C335.953 140.5 333.703 139.967 331.736 138.9C329.769 137.8 328.203 136.3 327.036 134.4C325.903 132.5 325.336 130.333 325.336 127.9C325.336 125.5 325.886 123.367 326.986 121.5C328.119 119.6 329.653 118.1 331.586 117C333.519 115.867 335.669 115.3 338.036 115.3C340.369 115.3 342.419 115.833 344.186 116.9C345.986 117.933 347.386 119.367 348.386 121.2C349.419 123 349.936 125.05 349.936 127.35C349.936 127.783 349.903 128.233 349.836 128.7C349.803 129.133 349.719 129.633 349.586 130.2L329.286 130.25V125.35L346.536 125.3L343.886 127.35C343.819 125.917 343.553 124.717 343.086 123.75C342.653 122.783 342.003 122.05 341.136 121.55C340.303 121.017 339.269 120.75 338.036 120.75C336.736 120.75 335.603 121.05 334.636 121.65C333.669 122.217 332.919 123.033 332.386 124.1C331.886 125.133 331.636 126.367 331.636 127.8C331.636 129.267 331.903 130.55 332.436 131.65C333.003 132.717 333.803 133.55 334.836 134.15C335.869 134.717 337.069 135 338.436 135C339.669 135 340.786 134.8 341.786 134.4C342.786 133.967 343.653 133.333 344.386 132.5L348.236 136.35C347.069 137.717 345.636 138.75 343.936 139.45C342.269 140.15 340.453 140.5 338.486 140.5ZM364.687 140.5C362.454 140.5 360.454 139.95 358.687 138.85C356.92 137.75 355.52 136.25 354.487 134.35C353.487 132.45 352.987 130.317 352.987 127.95C352.987 125.55 353.487 123.4 354.487 121.5C355.52 119.6 356.904 118.1 358.637 117C360.404 115.9 362.42 115.35 364.687 115.35C366.42 115.35 367.97 115.7 369.337 116.4C370.737 117.1 371.854 118.083 372.687 119.35C373.554 120.583 374.02 121.983 374.087 123.55V132.15C374.02 133.717 373.57 135.133 372.737 136.4C371.904 137.667 370.787 138.667 369.387 139.4C367.987 140.133 366.42 140.5 364.687 140.5ZM365.787 134.45C367.02 134.45 368.087 134.183 368.987 133.65C369.92 133.083 370.637 132.317 371.137 131.35C371.67 130.35 371.937 129.2 371.937 127.9C371.937 126.633 371.67 125.517 371.137 124.55C370.637 123.55 369.92 122.783 368.987 122.25C368.087 121.683 367.037 121.4 365.837 121.4C364.604 121.4 363.52 121.683 362.587 122.25C361.687 122.817 360.97 123.583 360.437 124.55C359.937 125.517 359.687 126.633 359.687 127.9C359.687 129.2 359.937 130.35 360.437 131.35C360.97 132.317 361.704 133.083 362.637 133.65C363.57 134.183 364.62 134.45 365.787 134.45ZM378.087 140H371.587V133.5L372.637 127.6L371.537 121.8V103.85H378.087V140Z" fill="white"/>
<path d="M569.855 75.8733C570.36 74.867 570.698 74.0365 571.191 73.2561C576.143 65.3638 583.037 58.7693 590.639 52.6864C591.532 51.9759 592.605 51.3424 593.737 50.9931C594.347 50.8033 595.458 51.0434 596.048 51.4431C596.489 51.7483 596.684 52.6721 596.492 53.1403C596.143 54.0372 595.577 54.9189 594.87 55.662C590.22 60.5735 585.548 65.4582 580.826 70.3115C579.053 72.1226 577.204 73.8976 575.382 75.6772C574.783 76.2794 574.133 76.8501 573.465 77.3718C572.728 77.9728 571.722 78.2301 570.871 77.6021C570.312 77.185 569.684 76.8471 569.855 75.8733Z" fill="#F2EFE0"/>
<path d="M601.827 115.431C600.579 115.03 599.109 114.636 597.717 114.119C592.226 112.063 586.735 110.007 581.279 107.912C580.095 107.454 578.969 106.824 577.962 106.146C576.608 105.248 576.261 104.252 576.675 103.298C577.089 102.344 578.157 101.892 579.84 102.164C580.99 102.342 582.212 102.579 583.266 102.991C590.172 105.75 597.07 108.554 603.937 111.375C604.706 111.692 605.478 112.146 606.013 112.696C607.369 114.051 606.592 115.671 604.546 115.747C603.746 115.766 602.878 115.546 601.827 115.431Z" fill="#F2EFE0"/>
<path d="M537.318 42.9925C537.607 41.971 538.056 40.9775 538.553 40.0154C539.005 39.1593 539.864 38.648 541.079 38.7693C542.103 38.8801 543.049 39.9123 543.015 41.0469C542.969 42.567 542.892 44.1046 542.553 45.5734C541.53 50.002 540.398 54.4341 539.243 58.8394C538.85 60.2989 538.351 61.7397 537.798 63.1713C537.602 63.6616 537.296 64.1555 536.88 64.4932C535.75 65.4587 534.06 65.0718 533.606 63.738C533.353 62.9866 533.34 62.1176 533.472 61.3652C533.773 58.8631 536.329 46.6058 537.318 42.9925Z" fill="#F2EFE0"/>
<path d="M158.01 159.108C140.408 160.129 123.089 161.562 105.424 161.273C83.8251 160.92 62.3564 158.497 40.8685 156.504C40.5127 156.47 40.5036 156.982 40.8365 157.044C62.1076 160.935 83.7165 162.539 105.322 162.997C122.613 163.364 141.081 163.272 158.033 159.423C158.203 159.384 158.198 159.096 158.01 159.108V159.108Z" fill="#808AE2"/>
<path d="M551.569 99.9597C537.818 88.5395 523.082 83.0086 505.285 81.3656C504.929 81.3319 504.97 80.8002 505.302 80.7566C520.991 78.6366 543.689 84.9587 551.855 99.7488C551.948 99.9164 551.702 100.071 551.567 99.96L551.569 99.9597Z" fill="#808AE2"/>
</svg>
