<svg xmlns="http://www.w3.org/2000/svg" fill="none" viewBox="32.76 20.82 44.95 57.69">
<path d="M36.8054 39.7265C38.5484 40.4939 40.0389 41.1069 41.4918 41.8013C43.9602 42.9689 46.3509 44.231 48.2237 46.3619C50.1217 48.5256 50.6648 50.9475 49.6109 53.4653C48.9614 55.0101 47.8915 56.3557 46.9602 57.7513C46.5932 58.2949 46.0642 58.7366 45.399 59.4573C46.8698 59.3713 48.0233 59.2855 49.181 59.2487C52.0092 59.1465 54.831 58.9273 57.6574 59.0182C61.5302 59.123 63.607 61.4105 63.5236 65.3421C63.4898 66.8837 63.0819 68.4169 62.8275 69.954C62.7482 70.4157 62.6038 70.8578 62.4678 71.3978C64.8935 70.3161 67.1826 69.2523 69.4991 68.2894C74.9072 66.0462 77.6289 69.9108 77.7119 74.0803C77.7342 75.1954 77.4856 76.3274 77.26 77.4242C77.0844 78.1516 76.545 78.6884 75.7442 78.4507C75.0168 78.2436 74.8815 77.5463 74.9395 76.8398C74.9869 76.1413 75.0827 75.4404 75.0524 74.7495C75.0157 73.9415 74.9706 73.1226 74.7784 72.3297C74.2335 70.1008 72.9969 69.275 70.8375 69.8557C69.3125 70.2622 67.8486 70.9002 66.3974 71.5112C65.047 72.0795 63.7177 72.7187 62.3883 73.3578C61.6995 73.6786 60.9938 73.9775 60.2809 73.4631C59.4606 72.8746 59.6214 72.0192 59.7654 71.2291C59.9427 70.2216 60.2693 69.2561 60.39 68.2401C60.5586 66.9606 60.6999 65.6673 60.6668 64.3862C60.6163 62.6481 59.9513 61.8704 58.2384 61.6199C56.6012 61.381 54.9158 61.2313 53.2684 61.2615C49.7405 61.3444 46.2379 61.5472 42.7248 61.758C41.8927 61.8057 41.2033 61.6913 40.7989 60.9048C40.4093 60.1593 40.7636 59.5557 41.2736 59.0242C42.1844 58.0797 43.1498 57.163 44.008 56.1719C44.7571 55.2996 45.5104 54.3893 46.0807 53.3932C47.6113 50.7351 47.2138 48.7413 44.9018 46.5824C43.1662 44.9557 41.1874 43.7078 39.0659 42.7089C37.5395 41.9841 35.9732 41.3595 34.4301 40.6998C33.6122 40.3532 32.7671 39.9929 32.7594 38.9187C32.7645 37.9044 33.5415 37.481 34.3227 37.1066C34.6566 36.9543 35.0137 36.8539 35.3624 36.7425C36.0681 36.5306 36.7696 36.2698 37.4965 36.1289C42.8934 35.044 45.0803 31.2193 45.7044 26.1227C45.8167 25.1827 45.6368 24.1887 45.56 23.22C45.5258 22.7411 45.3487 22.2501 45.3712 21.7799C45.3792 21.4427 45.5383 20.9545 45.7798 20.8559C46.0423 20.7411 46.5217 20.9299 46.8034 21.079C47.4111 21.413 47.8701 22.14 48.0516 22.767C48.4061 24.0099 48.6956 25.3203 48.6825 26.5847C48.6649 29.3855 47.815 31.9729 46.5026 34.3934C45.3831 36.4565 43.5754 37.6901 41.4183 38.4259C40.0026 38.8876 38.5615 39.2294 36.8054 39.7265Z" fill="black"/>
</svg>