<svg xmlns="http://www.w3.org/2000/svg" fill="none" viewBox="32.76 20.82 44.95 57.69">
<path d="M36.8051 39.7265C38.548 40.4939 40.0386 41.1069 41.4914 41.8013C43.9598 42.9689 46.3505 44.231 48.2233 46.3619C50.1214 48.5256 50.6644 50.9475 49.6106 53.4653C48.9611 55.0101 47.8911 56.3557 46.9599 57.7513C46.5928 58.2949 46.0638 58.7366 45.3986 59.4573C46.8694 59.3713 48.0229 59.2855 49.1807 59.2487C52.0089 59.1465 54.8307 58.9273 57.657 59.0182C61.5298 59.123 63.6066 61.4105 63.5232 65.3421C63.4894 66.8837 63.0816 68.4169 62.8271 69.954C62.7479 70.4157 62.6034 70.8578 62.4675 71.3978C64.8932 70.3161 67.1822 69.2523 69.4988 68.2894C74.9068 66.0462 77.6286 69.9108 77.7115 74.0803C77.7339 75.1954 77.4852 76.3274 77.2597 77.4242C77.0841 78.1516 76.5447 78.6884 75.7438 78.4507C75.0165 78.2436 74.8811 77.5463 74.9391 76.8398C74.9866 76.1413 75.0824 75.4404 75.0521 74.7495C75.0154 73.9415 74.9702 73.1226 74.778 72.3297C74.2331 70.1008 72.9965 69.275 70.8371 69.8557C69.3121 70.2622 67.8483 70.9002 66.3971 71.5112C65.0466 72.0795 63.7173 72.7187 62.388 73.3578C61.6991 73.6786 60.9935 73.9775 60.2805 73.4631C59.4603 72.8746 59.621 72.0192 59.765 71.2291C59.9424 70.2216 60.269 69.2561 60.3896 68.2401C60.5582 66.9606 60.6995 65.6673 60.6664 64.3862C60.6159 62.6481 59.951 61.8704 58.2381 61.6199C56.6009 61.381 54.9155 61.2313 53.2681 61.2615C49.7401 61.3444 46.2375 61.5472 42.7244 61.758C41.8924 61.8057 41.203 61.6913 40.7986 60.9048C40.4089 60.1593 40.7633 59.5557 41.2732 59.0242C42.184 58.0797 43.1495 57.163 44.0077 56.1719C44.7568 55.2996 45.51 54.3893 46.0803 53.3932C47.611 50.7351 47.2135 48.7413 44.9015 46.5824C43.1659 44.9557 41.187 43.7078 39.0656 42.7089C37.5391 41.9841 35.9729 41.3595 34.4297 40.6998C33.6119 40.3532 32.7667 39.9929 32.7591 38.9187C32.7641 37.9044 33.5411 37.481 34.3223 37.1066C34.6562 36.9543 35.0133 36.8539 35.362 36.7425C36.0678 36.5306 36.7693 36.2698 37.4962 36.1289C42.893 35.044 45.08 31.2193 45.704 26.1227C45.8163 25.1827 45.6365 24.1887 45.5596 23.22C45.5254 22.7411 45.3483 22.2501 45.3709 21.7799C45.3788 21.4427 45.5379 20.9545 45.7795 20.8559C46.042 20.7411 46.5213 20.9299 46.8031 21.079C47.4108 21.413 47.8697 22.14 48.0512 22.767C48.4058 24.0099 48.6953 25.3203 48.6821 26.5847C48.6646 29.3855 47.8147 31.9729 46.5023 34.3934C45.3827 36.4565 43.575 37.6901 41.4179 38.4259C40.0022 38.8876 38.5612 39.2294 36.8051 39.7265Z" fill="#F2EFE0"/>
</svg>