<svg xmlns="http://www.w3.org/2000/svg" fill="none" viewBox="34.65 40.51 56.45 61.03">
<path d="M86.311 78.1925C84.2004 77.6165 82.4008 77.1735 80.6345 76.6306C77.6353 75.722 74.7139 74.6911 72.2824 72.5709C69.8175 70.4174 68.8864 67.7293 69.789 64.6507C70.3461 62.7614 71.4142 61.0271 72.3157 59.2597C72.6718 58.5705 73.2279 57.9701 73.9065 57.025C72.2173 57.382 70.8948 57.6831 69.5612 57.9287C66.3052 58.5425 63.0712 59.2896 59.7931 59.6813C55.3037 60.2406 52.6167 57.9761 52.2205 53.4431C52.0664 51.6655 52.3457 49.8319 52.4473 48.0207C52.481 47.4762 52.5926 46.9428 52.682 46.2983C50.014 47.9672 47.5015 49.5915 44.9447 51.1048C38.975 54.632 35.345 50.6683 34.7268 45.891C34.5612 44.6134 34.7067 43.2688 34.83 41.9687C34.9419 41.102 35.498 40.3904 36.4535 40.5229C37.3201 40.6333 37.5638 41.4109 37.5854 42.2331C37.618 43.0442 37.5951 43.8664 37.7167 44.6552C37.8604 45.5773 38.0151 46.5105 38.3366 47.388C39.2457 49.854 40.7784 50.586 43.2015 49.5395C44.9132 48.8048 46.5252 47.8145 48.126 46.8576C49.6156 45.9675 51.072 44.9996 52.5284 44.0317C53.2843 43.5422 54.0625 43.0749 54.951 43.5408C55.9728 44.0733 55.8942 45.0845 55.8267 46.0179C55.7479 47.2068 55.4914 48.3737 55.4793 49.5626C55.4447 51.0627 55.4435 52.5738 55.6422 54.0403C55.9184 56.0289 56.7844 56.806 58.7955 56.7932C60.7177 56.7805 62.6845 56.6566 64.5848 56.3328C68.6521 55.6183 72.675 54.7705 76.7091 53.9116C77.6648 53.7108 78.4759 53.7212 79.0419 54.5541C79.5856 55.3425 79.2517 56.0984 78.7289 56.7988C77.7945 58.044 76.7935 59.2671 75.9257 60.5567C75.1692 61.6907 74.4127 62.8691 73.8783 64.114C72.4422 67.4374 73.1515 69.659 76.0942 71.7344C78.304 73.2992 80.7475 74.386 83.3247 75.1617C85.1798 75.7268 87.0683 76.1697 88.9345 76.657C89.9232 76.9117 90.9452 77.1775 91.0886 78.4107C91.2099 79.5773 90.3649 80.2002 89.5089 80.7676C89.142 81.0013 88.7419 81.1794 88.3528 81.3686C87.5636 81.7359 86.7855 82.1588 85.963 82.4484C79.8612 84.6424 77.8128 89.4219 77.73 95.3886C77.718 96.4886 78.0504 97.5994 78.2606 98.6993C78.3601 99.2436 78.6263 99.7768 78.6592 100.321C78.6922 100.71 78.5695 101.299 78.3027 101.455C78.0137 101.633 77.436 101.5 77.0917 101.378C76.3474 101.101 75.7258 100.346 75.4375 99.6572C74.872 98.291 74.3732 96.8359 74.23 95.3804C73.8993 92.1585 74.5575 89.0357 75.7711 86.0235C76.8066 83.456 78.7414 81.7211 81.1424 80.4968C82.7209 79.7177 84.3436 79.0719 86.311 78.1925Z" fill="#F2EFE0" fill-opacity="0.94902"/>
</svg>