<svg xmlns="http://www.w3.org/2000/svg" fill="none" viewBox="34.65 40.51 56.45 61.03">
<path d="M86.3105 78.1925C84.1998 77.6165 82.4002 77.1736 80.634 76.6306C77.6347 75.722 74.7134 74.6911 72.2818 72.5709C69.8169 70.4174 68.8858 67.7293 69.7884 64.6507C70.3455 62.7614 71.4136 61.0272 72.3151 59.2597C72.6712 58.5705 73.2273 57.9701 73.9059 57.0251C72.2167 57.382 70.8942 57.6831 69.5607 57.9287C66.3046 58.5425 63.0706 59.2897 59.7925 59.6813C55.3031 60.2406 52.6161 57.9762 52.2199 53.4432C52.0659 51.6655 52.3452 49.8319 52.4467 48.0207C52.4805 47.4763 52.592 46.9428 52.6814 46.2983C50.0134 47.9672 47.5009 49.5915 44.9441 51.1048C38.9745 54.632 35.3444 50.6684 34.7262 45.8911C34.5606 44.6134 34.7062 43.2689 34.8295 41.9688C34.9413 41.102 35.4974 40.3904 36.4529 40.523C37.3195 40.6333 37.5633 41.4109 37.5848 42.2331C37.6175 43.0442 37.5946 43.8665 37.7161 44.6552C37.8598 45.5774 38.0146 46.5106 38.3361 47.3881C39.2451 49.854 40.7778 50.586 43.2009 49.5396C44.9127 48.8048 46.5246 47.8146 48.1254 46.8577C49.615 45.9675 51.0714 44.9997 52.5278 44.0318C53.2837 43.5423 54.0619 43.0749 54.9504 43.5409C55.9722 44.0733 55.8936 45.0845 55.8261 46.0179C55.7474 47.2069 55.4908 48.3738 55.4787 49.5627C55.4441 51.0627 55.4429 52.5738 55.6417 54.0403C55.9178 56.029 56.7838 56.806 58.7949 56.7932C60.7172 56.7805 62.6839 56.6567 64.5842 56.3328C68.6515 55.6183 72.6744 54.7705 76.7085 53.9116C77.6642 53.7108 78.4753 53.7212 79.0413 54.5541C79.5851 55.3425 79.2511 56.0984 78.7283 56.7988C77.7939 58.044 76.7929 59.2671 75.9252 60.5567C75.1686 61.6907 74.4121 62.8691 73.8777 64.114C72.4416 67.4374 73.1509 69.6591 76.0936 71.7344C78.3034 73.2992 80.747 74.3861 83.3241 75.1617C85.1792 75.7268 87.0677 76.1697 88.934 76.657C89.9226 76.9117 90.9446 77.1776 91.0881 78.4108C91.2093 79.5773 90.3643 80.2003 89.5083 80.7677C89.1414 81.0013 88.7413 81.1794 88.3523 81.3686C87.5631 81.7359 86.7849 82.1588 85.9625 82.4484C79.8606 84.6424 77.8122 89.4219 77.7294 95.3886C77.7174 96.4886 78.0498 97.5995 78.26 98.6993C78.3595 99.2437 78.6258 99.7768 78.6586 100.321C78.6916 100.71 78.5689 101.299 78.3021 101.455C78.0131 101.633 77.4354 101.5 77.0911 101.378C76.3469 101.101 75.7253 100.346 75.437 99.6572C74.8714 98.291 74.3726 96.8359 74.2294 95.3804C73.8988 92.1585 74.5569 89.0357 75.7706 86.0236C76.806 83.456 78.7408 81.7211 81.1419 80.4969C82.7203 79.7178 84.3431 79.072 86.3105 78.1925Z" fill="black"/>
</svg>